<svg width="502" height="172" viewBox="0 0 502 172" fill="none" xmlns="http://www.w3.org/2000/svg">
<path fill-rule="evenodd" clip-rule="evenodd" d="M92.691 46H57.5858C41.006 46 35 52.0695 35 68.5079V103.492C35 120.015 41.0906 126 57.5858 126H92.691C109.271 126 115.277 119.93 115.277 103.492V68.5079C115.361 52.0695 109.271 46 92.691 46Z" fill="#C8102E"/>
<path d="M50.9032 86.0437H53.018V96.4968H50.9032V92.2818H46.0816V96.4968H43.9668V86.0437H46.0816V90.2586H50.9032V86.0437ZM62.9151 92.0289C62.9151 93.7149 62.0692 94.6422 60.5466 94.6422C59.024 94.6422 58.1781 93.7149 58.1781 91.9446V86.0437H56.0633V92.0289C56.0633 94.9794 57.6705 96.6654 60.5466 96.6654C63.4227 96.6654 65.1145 94.9794 65.1145 91.9446V86.0437H62.9997V92.0289H62.9151ZM87.5311 93.2091L85.1625 86.0437H83.3861L81.0176 93.2091L78.7336 86.0437H76.4497L80.0871 96.4968H81.8635L84.232 89.5842L86.6006 96.4968H88.377L92.0144 86.0437H89.815L87.5311 93.2091ZM95.9056 92.0289H99.7968V90.09H95.9056V87.9826H101.573V86.0437H93.8754V96.4968H101.827V94.5579H95.9902V92.0289H95.9056ZM104.28 96.4968H106.395V86.0437H104.28V96.4968ZM69.2594 94.305L68.329 96.4968H66.1296L70.6975 86.0437H72.5585L77.1264 96.4968H74.927L73.9966 94.305H69.2594ZM70.0208 92.4504H73.2352L71.628 88.7412L70.0208 92.4504Z" fill="white"/>
<path d="M75.1812 72.7236C67.8219 72.7236 61.8159 66.7383 61.8159 59.4043H63.6769C63.6769 65.7267 68.8369 70.869 75.1812 70.869C81.5255 70.869 86.6856 65.7267 86.6856 59.4043H88.5466C88.5466 66.7383 82.5406 72.7236 75.1812 72.7236Z" fill="white"/>
<path d="M141.547 59C141.354 59 141.173 58.9275 141.003 58.7824C140.858 58.6373 140.786 58.4559 140.786 58.2383C140.786 58.1416 140.81 58.0328 140.858 57.9119L149.6 34.517C149.672 34.2751 149.805 34.0696 149.999 33.9003C150.216 33.7069 150.506 33.6102 150.869 33.6102H154.823C155.185 33.6102 155.463 33.7069 155.657 33.9003C155.85 34.0696 155.995 34.2751 156.092 34.517L164.833 57.9119C164.858 58.0328 164.87 58.1416 164.87 58.2383C164.87 58.4559 164.797 58.6373 164.652 58.7824C164.507 58.9275 164.338 59 164.144 59H160.989C160.65 59 160.396 58.9275 160.227 58.7824C160.082 58.6131 159.985 58.4559 159.937 58.3108L158.232 53.8858H147.46L145.755 58.3108C145.706 58.4559 145.598 58.6131 145.428 58.7824C145.283 58.9275 145.041 59 144.703 59H141.547ZM148.729 49.7146H156.963L152.828 38.5068L148.729 49.7146ZM173.219 59C172.833 59 172.542 58.9154 172.349 58.7461C172.18 58.5527 172.035 58.335 171.914 58.0932L165.131 41.2634C165.083 41.1425 165.058 41.0337 165.058 40.937C165.058 40.7193 165.131 40.538 165.276 40.3929C165.445 40.2236 165.639 40.139 165.856 40.139H168.794C169.085 40.139 169.302 40.2236 169.447 40.3929C169.592 40.538 169.689 40.6831 169.737 40.8281L174.561 53.5593L179.386 40.8281C179.434 40.6831 179.531 40.538 179.676 40.3929C179.821 40.2236 180.038 40.139 180.329 40.139H183.303C183.496 40.139 183.666 40.2236 183.811 40.3929C183.98 40.538 184.065 40.7193 184.065 40.937C184.065 41.0337 184.052 41.1425 184.028 41.2634L177.209 58.0932C177.113 58.335 176.967 58.5527 176.774 58.7461C176.581 58.9154 176.29 59 175.903 59H173.219ZM192.106 59.3627C190.849 59.3627 189.712 59.1209 188.697 58.6373C187.681 58.1295 186.871 57.4645 186.267 56.6424C185.686 55.796 185.396 54.853 185.396 53.8132C185.396 52.1206 186.073 50.7785 187.427 49.7871C188.806 48.7715 190.619 48.0945 192.868 47.7559L197.837 47.0305V46.2688C197.837 45.2532 197.583 44.4674 197.075 43.9112C196.568 43.355 195.697 43.077 194.464 43.077C193.593 43.077 192.88 43.2583 192.324 43.621C191.792 43.9596 191.393 44.419 191.127 44.9993C190.933 45.3137 190.655 45.4709 190.293 45.4709H187.427C187.161 45.4709 186.956 45.3983 186.811 45.2532C186.69 45.1081 186.629 44.9147 186.629 44.6729C186.653 44.286 186.811 43.8145 187.101 43.2583C187.391 42.7022 187.85 42.1702 188.479 41.6624C189.108 41.1304 189.918 40.6831 190.909 40.3203C191.901 39.9576 193.098 39.7763 194.5 39.7763C196.024 39.7763 197.305 39.9697 198.345 40.3566C199.409 40.7193 200.255 41.215 200.884 41.8437C201.513 42.4724 201.972 43.2099 202.262 44.0563C202.552 44.9026 202.697 45.7973 202.697 46.7403V58.1295C202.697 58.3713 202.613 58.5768 202.444 58.7461C202.274 58.9154 202.069 59 201.827 59H198.889C198.623 59 198.405 58.9154 198.236 58.7461C198.091 58.5768 198.018 58.3713 198.018 58.1295V56.7149C197.704 57.1744 197.281 57.6096 196.749 58.0207C196.217 58.4076 195.564 58.734 194.79 59C194.041 59.2418 193.146 59.3627 192.106 59.3627ZM193.339 55.917C194.186 55.917 194.947 55.7356 195.625 55.3729C196.326 55.0102 196.87 54.454 197.257 53.7044C197.668 52.9306 197.873 51.9634 197.873 50.8027V50.041L194.246 50.6214C192.82 50.839 191.756 51.1896 191.054 51.6732C190.353 52.1568 190.002 52.7493 190.002 53.4505C190.002 53.9825 190.16 54.4419 190.474 54.8288C190.813 55.1915 191.236 55.4696 191.744 55.6631C192.251 55.8323 192.783 55.917 193.339 55.917ZM208.221 59C207.979 59 207.774 58.9154 207.604 58.7461C207.435 58.5768 207.351 58.3713 207.351 58.1295V41.0095C207.351 40.7677 207.435 40.5622 207.604 40.3929C207.774 40.2236 207.979 40.139 208.221 40.139H211.232C211.498 40.139 211.703 40.2236 211.848 40.3929C212.017 40.5622 212.102 40.7677 212.102 41.0095V58.1295C212.102 58.3713 212.017 58.5768 211.848 58.7461C211.703 58.9154 211.498 59 211.232 59H208.221ZM208.076 37.0197C207.81 37.0197 207.592 36.9471 207.423 36.802C207.278 36.6328 207.206 36.4151 207.206 36.1492V33.5376C207.206 33.2958 207.278 33.0903 207.423 32.921C207.592 32.7518 207.81 32.6671 208.076 32.6671H211.377C211.643 32.6671 211.86 32.7518 212.03 32.921C212.199 33.0903 212.283 33.2958 212.283 33.5376V36.1492C212.283 36.4151 212.199 36.6328 212.03 36.802C211.86 36.9471 211.643 37.0197 211.377 37.0197H208.076ZM217.821 59C217.579 59 217.374 58.9154 217.204 58.7461C217.035 58.5768 216.951 58.3713 216.951 58.1295V34.118C216.951 33.8762 217.035 33.6706 217.204 33.5014C217.374 33.3321 217.579 33.2475 217.821 33.2475H220.832C221.073 33.2475 221.279 33.3321 221.448 33.5014C221.617 33.6706 221.702 33.8762 221.702 34.118V58.1295C221.702 58.3713 221.617 58.5768 221.448 58.7461C221.279 58.9154 221.073 59 220.832 59H217.821ZM231.99 59.3627C230.733 59.3627 229.596 59.1209 228.581 58.6373C227.565 58.1295 226.755 57.4645 226.151 56.6424C225.57 55.796 225.28 54.853 225.28 53.8132C225.28 52.1206 225.957 50.7785 227.311 49.7871C228.69 48.7715 230.503 48.0945 232.752 47.7559L237.721 47.0305V46.2688C237.721 45.2532 237.467 44.4674 236.959 43.9112C236.452 43.355 235.581 43.077 234.348 43.077C233.477 43.077 232.764 43.2583 232.208 43.621C231.676 43.9596 231.277 44.419 231.011 44.9993C230.818 45.3137 230.539 45.4709 230.177 45.4709H227.311C227.045 45.4709 226.84 45.3983 226.695 45.2532C226.574 45.1081 226.513 44.9147 226.513 44.6729C226.538 44.286 226.695 43.8145 226.985 43.2583C227.275 42.7022 227.735 42.1702 228.363 41.6624C228.992 41.1304 229.802 40.6831 230.793 40.3203C231.785 39.9576 232.982 39.7763 234.384 39.7763C235.908 39.7763 237.189 39.9697 238.229 40.3566C239.293 40.7193 240.139 41.215 240.768 41.8437C241.397 42.4724 241.856 43.2099 242.146 44.0563C242.436 44.9026 242.582 45.7973 242.582 46.7403V58.1295C242.582 58.3713 242.497 58.5768 242.328 58.7461C242.158 58.9154 241.953 59 241.711 59H238.773C238.507 59 238.289 58.9154 238.12 58.7461C237.975 58.5768 237.903 58.3713 237.903 58.1295V56.7149C237.588 57.1744 237.165 57.6096 236.633 58.0207C236.101 58.4076 235.448 58.734 234.674 59C233.925 59.2418 233.03 59.3627 231.99 59.3627ZM233.224 55.917C234.07 55.917 234.832 55.7356 235.509 55.3729C236.21 55.0102 236.754 54.454 237.141 53.7044C237.552 52.9306 237.757 51.9634 237.757 50.8027V50.041L234.13 50.6214C232.704 50.839 231.64 51.1896 230.938 51.6732C230.237 52.1568 229.887 52.7493 229.887 53.4505C229.887 53.9825 230.044 54.4419 230.358 54.8288C230.697 55.1915 231.12 55.4696 231.628 55.6631C232.135 55.8323 232.667 55.917 233.224 55.917ZM257.681 59.3627C256.278 59.3627 255.106 59.1209 254.163 58.6373C253.244 58.1537 252.482 57.5371 251.877 56.7875V58.1295C251.877 58.3713 251.793 58.5768 251.624 58.7461C251.478 58.9154 251.273 59 251.007 59H248.141C247.9 59 247.694 58.9154 247.525 58.7461C247.356 58.5768 247.271 58.3713 247.271 58.1295V34.118C247.271 33.8762 247.356 33.6706 247.525 33.5014C247.694 33.3321 247.9 33.2475 248.141 33.2475H251.225C251.491 33.2475 251.696 33.3321 251.841 33.5014C252.01 33.6706 252.095 33.8762 252.095 34.118V42.1702C252.7 41.4689 253.449 40.9007 254.344 40.4654C255.263 40.006 256.375 39.7763 257.681 39.7763C258.962 39.7763 260.075 39.9939 261.018 40.4292C261.961 40.8644 262.747 41.481 263.375 42.279C264.028 43.0528 264.524 43.9596 264.863 44.9993C265.201 46.0391 265.382 47.1635 265.407 48.3725C265.431 48.8078 265.443 49.2068 265.443 49.5695C265.443 49.908 265.431 50.2949 265.407 50.7302C265.358 51.9876 265.165 53.1483 264.826 54.2122C264.488 55.252 264.004 56.1588 263.375 56.9325C262.747 57.7063 261.961 58.3108 261.018 58.7461C260.075 59.1572 258.962 59.3627 257.681 59.3627ZM256.339 55.4817C257.379 55.4817 258.189 55.2641 258.769 54.8288C259.349 54.3694 259.76 53.777 260.002 53.0515C260.268 52.3261 260.425 51.5281 260.474 50.6576C260.522 49.9322 260.522 49.2068 260.474 48.4814C260.425 47.6109 260.268 46.8129 260.002 46.0875C259.76 45.362 259.349 44.7817 258.769 44.3464C258.189 43.887 257.379 43.6573 256.339 43.6573C255.372 43.6573 254.586 43.8749 253.981 44.3102C253.377 44.7454 252.917 45.3016 252.603 45.9786C252.289 46.6315 252.119 47.3207 252.095 48.0461C252.071 48.4814 252.059 48.9529 252.059 49.4607C252.059 49.9443 252.071 50.4037 252.095 50.839C252.143 51.5886 252.301 52.3261 252.567 53.0515C252.857 53.7528 253.304 54.3331 253.909 54.7925C254.537 55.252 255.347 55.4817 256.339 55.4817ZM270.386 59C270.144 59 269.939 58.9154 269.769 58.7461C269.6 58.5768 269.515 58.3713 269.515 58.1295V34.118C269.515 33.8762 269.6 33.6706 269.769 33.5014C269.939 33.3321 270.144 33.2475 270.386 33.2475H273.396C273.638 33.2475 273.844 33.3321 274.013 33.5014C274.182 33.6706 274.267 33.8762 274.267 34.118V58.1295C274.267 58.3713 274.182 58.5768 274.013 58.7461C273.844 58.9154 273.638 59 273.396 59H270.386ZM287.203 59.3627C284.519 59.3627 282.391 58.5889 280.819 57.0414C279.248 55.4938 278.401 53.2933 278.28 50.44C278.256 50.1982 278.244 49.8959 278.244 49.5332C278.244 49.1463 278.256 48.8441 278.28 48.6264C278.377 46.8129 278.788 45.2411 279.514 43.9112C280.263 42.5812 281.291 41.5657 282.597 40.8644C283.902 40.139 285.438 39.7763 287.203 39.7763C289.162 39.7763 290.806 40.1874 292.136 41.0095C293.466 41.8075 294.469 42.9319 295.146 44.3827C295.823 45.8094 296.162 47.4658 296.162 49.3519V50.1136C296.162 50.3554 296.077 50.5609 295.908 50.7302C295.739 50.8994 295.521 50.9841 295.255 50.9841H283.213C283.213 50.9841 283.213 51.0203 283.213 51.0929C283.213 51.1654 283.213 51.2259 283.213 51.2742C283.237 52.1206 283.395 52.9064 283.685 53.6319C283.999 54.3331 284.446 54.9014 285.027 55.3366C285.631 55.7719 286.345 55.9895 287.167 55.9895C287.844 55.9895 288.412 55.8928 288.871 55.6993C289.331 55.4817 289.706 55.2399 289.996 54.9739C290.286 54.7079 290.492 54.4903 290.612 54.321C290.83 54.0308 290.999 53.8616 291.12 53.8132C291.265 53.7407 291.471 53.7044 291.737 53.7044H294.856C295.098 53.7044 295.291 53.777 295.437 53.922C295.606 54.0671 295.678 54.2485 295.654 54.4661C295.63 54.853 295.424 55.3245 295.038 55.8807C294.675 56.4368 294.143 56.9809 293.442 57.5129C292.74 58.0449 291.858 58.4922 290.794 58.8549C289.754 59.1934 288.557 59.3627 287.203 59.3627ZM283.213 47.9373H291.229V47.8285C291.229 46.8854 291.072 46.0633 290.758 45.362C290.443 44.6608 289.984 44.1046 289.379 43.6936C288.775 43.2825 288.049 43.077 287.203 43.077C286.357 43.077 285.631 43.2825 285.027 43.6936C284.422 44.1046 283.963 44.6608 283.648 45.362C283.358 46.0633 283.213 46.8854 283.213 47.8285V47.9373ZM316.643 59.3627C314.709 59.3627 313.076 59.0242 311.746 58.3471C310.441 57.6701 309.437 56.7149 308.736 55.4817C308.059 54.2485 307.672 52.8097 307.575 51.1654C307.551 50.7302 307.539 50.1982 307.539 49.5695C307.539 48.9408 307.551 48.4088 307.575 47.9736C307.672 46.3051 308.071 44.8663 308.772 43.6573C309.498 42.4241 310.513 41.4689 311.819 40.7919C313.149 40.1148 314.757 39.7763 316.643 39.7763C318.529 39.7763 320.125 40.1148 321.431 40.7919C322.761 41.4689 323.776 42.4241 324.478 43.6573C325.203 44.8663 325.614 46.3051 325.711 47.9736C325.735 48.4088 325.747 48.9408 325.747 49.5695C325.747 50.1982 325.735 50.7302 325.711 51.1654C325.614 52.8097 325.215 54.2485 324.514 55.4817C323.837 56.7149 322.833 57.6701 321.503 58.3471C320.198 59.0242 318.577 59.3627 316.643 59.3627ZM316.643 55.7719C317.925 55.7719 318.916 55.3729 319.617 54.5749C320.318 53.7528 320.705 52.5558 320.778 50.9841C320.802 50.6214 320.814 50.1498 320.814 49.5695C320.814 48.9892 320.802 48.5176 320.778 48.1549C320.705 46.6073 320.318 45.4225 319.617 44.6003C318.916 43.7782 317.925 43.3671 316.643 43.3671C315.361 43.3671 314.37 43.7782 313.669 44.6003C312.968 45.4225 312.581 46.6073 312.508 48.1549C312.484 48.5176 312.472 48.9892 312.472 49.5695C312.472 50.1498 312.484 50.6214 312.508 50.9841C312.581 52.5558 312.968 53.7528 313.669 54.5749C314.37 55.3729 315.361 55.7719 316.643 55.7719ZM330.636 59C330.395 59 330.189 58.9154 330.02 58.7461C329.85 58.5768 329.766 58.3713 329.766 58.1295V41.0095C329.766 40.7677 329.85 40.5622 330.02 40.3929C330.189 40.2236 330.395 40.139 330.636 40.139H333.611C333.852 40.139 334.058 40.2236 334.227 40.3929C334.396 40.5622 334.481 40.7677 334.481 41.0095V42.4966C335.11 41.7228 335.908 41.082 336.875 40.5742C337.866 40.0423 339.087 39.7763 340.538 39.7763C342.013 39.7763 343.295 40.1148 344.383 40.7919C345.471 41.4448 346.305 42.3757 346.886 43.5848C347.49 44.7938 347.793 46.2446 347.793 47.9373V58.1295C347.793 58.3713 347.708 58.5768 347.539 58.7461C347.369 58.9154 347.164 59 346.922 59H343.73C343.488 59 343.283 58.9154 343.114 58.7461C342.944 58.5768 342.86 58.3713 342.86 58.1295V48.1549C342.86 46.7524 342.509 45.6522 341.808 44.8542C341.131 44.0563 340.139 43.6573 338.834 43.6573C337.576 43.6573 336.573 44.0563 335.823 44.8542C335.073 45.6522 334.699 46.7524 334.699 48.1549V58.1295C334.699 58.3713 334.614 58.5768 334.445 58.7461C334.276 58.9154 334.07 59 333.828 59H330.636Z" fill="black"/>
<path d="M142.728 121C142.354 121 142.004 120.86 141.678 120.58C141.398 120.3 141.258 119.95 141.258 119.53C141.258 119.343 141.304 119.133 141.398 118.9L158.268 73.75C158.408 73.2833 158.664 72.8867 159.038 72.56C159.458 72.1867 160.018 72 160.718 72H168.348C169.048 72 169.584 72.1867 169.958 72.56C170.331 72.8867 170.611 73.2833 170.798 73.75L187.668 118.9C187.715 119.133 187.738 119.343 187.738 119.53C187.738 119.95 187.598 120.3 187.318 120.58C187.038 120.86 186.711 121 186.338 121H180.248C179.595 121 179.105 120.86 178.778 120.58C178.498 120.253 178.311 119.95 178.218 119.67L174.928 111.13H154.138L150.848 119.67C150.754 119.95 150.544 120.253 150.218 120.58C149.938 120.86 149.471 121 148.818 121H142.728ZM156.588 103.08H172.478L164.498 81.45L156.588 103.08ZM190.283 134.3C189.816 134.3 189.42 134.137 189.093 133.81C188.766 133.483 188.603 133.087 188.603 132.62V86.28C188.603 85.8133 188.766 85.4167 189.093 85.09C189.42 84.7633 189.816 84.6 190.283 84.6H195.813C196.326 84.6 196.723 84.7633 197.003 85.09C197.33 85.4167 197.493 85.8133 197.493 86.28V89.08C198.613 87.5867 200.083 86.35 201.903 85.37C203.723 84.39 205.986 83.9 208.693 83.9C211.166 83.9 213.313 84.2967 215.133 85.09C216.953 85.8833 218.47 87.0267 219.683 88.52C220.896 89.9667 221.83 91.6933 222.483 93.7C223.136 95.7067 223.51 97.9233 223.603 100.35C223.65 101.143 223.673 101.96 223.673 102.8C223.673 103.64 223.65 104.48 223.603 105.32C223.556 107.653 223.206 109.823 222.553 111.83C221.9 113.79 220.943 115.517 219.683 117.01C218.47 118.457 216.953 119.6 215.133 120.44C213.313 121.28 211.166 121.7 208.693 121.7C206.173 121.7 204.026 121.257 202.253 120.37C200.48 119.437 199.033 118.223 197.913 116.73V132.62C197.913 133.087 197.75 133.483 197.423 133.81C197.143 134.137 196.746 134.3 196.233 134.3H190.283ZM206.103 114.21C208.11 114.21 209.673 113.79 210.793 112.95C211.913 112.063 212.706 110.92 213.173 109.52C213.686 108.12 213.99 106.58 214.083 104.9C214.176 103.5 214.176 102.1 214.083 100.7C213.99 99.02 213.686 97.48 213.173 96.08C212.706 94.68 211.913 93.56 210.793 92.72C209.673 91.8333 208.11 91.39 206.103 91.39C204.19 91.39 202.626 91.8333 201.413 92.72C200.246 93.6067 199.383 94.75 198.823 96.15C198.31 97.5033 198.006 98.9033 197.913 100.35C197.866 101.19 197.843 102.077 197.843 103.01C197.843 103.943 197.866 104.853 197.913 105.74C197.96 107.14 198.286 108.493 198.893 109.8C199.5 111.06 200.386 112.11 201.553 112.95C202.72 113.79 204.236 114.21 206.103 114.21ZM228.381 134.3C227.914 134.3 227.518 134.137 227.191 133.81C226.864 133.483 226.701 133.087 226.701 132.62V86.28C226.701 85.8133 226.864 85.4167 227.191 85.09C227.518 84.7633 227.914 84.6 228.381 84.6H233.911C234.424 84.6 234.821 84.7633 235.101 85.09C235.428 85.4167 235.591 85.8133 235.591 86.28V89.08C236.711 87.5867 238.181 86.35 240.001 85.37C241.821 84.39 244.084 83.9 246.791 83.9C249.264 83.9 251.411 84.2967 253.231 85.09C255.051 85.8833 256.568 87.0267 257.781 88.52C258.994 89.9667 259.928 91.6933 260.581 93.7C261.234 95.7067 261.608 97.9233 261.701 100.35C261.748 101.143 261.771 101.96 261.771 102.8C261.771 103.64 261.748 104.48 261.701 105.32C261.654 107.653 261.304 109.823 260.651 111.83C259.998 113.79 259.041 115.517 257.781 117.01C256.568 118.457 255.051 119.6 253.231 120.44C251.411 121.28 249.264 121.7 246.791 121.7C244.271 121.7 242.124 121.257 240.351 120.37C238.578 119.437 237.131 118.223 236.011 116.73V132.62C236.011 133.087 235.848 133.483 235.521 133.81C235.241 134.137 234.844 134.3 234.331 134.3H228.381ZM244.201 114.21C246.208 114.21 247.771 113.79 248.891 112.95C250.011 112.063 250.804 110.92 251.271 109.52C251.784 108.12 252.088 106.58 252.181 104.9C252.274 103.5 252.274 102.1 252.181 100.7C252.088 99.02 251.784 97.48 251.271 96.08C250.804 94.68 250.011 93.56 248.891 92.72C247.771 91.8333 246.208 91.39 244.201 91.39C242.288 91.39 240.724 91.8333 239.511 92.72C238.344 93.6067 237.481 94.75 236.921 96.15C236.408 97.5033 236.104 98.9033 236.011 100.35C235.964 101.19 235.941 102.077 235.941 103.01C235.941 103.943 235.964 104.853 236.011 105.74C236.058 107.14 236.384 108.493 236.991 109.8C237.598 111.06 238.484 112.11 239.651 112.95C240.818 113.79 242.334 114.21 244.201 114.21ZM295.705 121.7C291.412 121.7 287.749 120.953 284.715 119.46C281.729 117.967 279.395 115.82 277.715 113.02C276.082 110.173 275.195 106.79 275.055 102.87C275.009 100.863 274.985 98.7167 274.985 96.43C274.985 94.0967 275.009 91.9033 275.055 89.85C275.195 85.9767 276.082 82.6633 277.715 79.91C279.395 77.1567 281.752 75.0333 284.785 73.54C287.865 72.0467 291.505 71.3 295.705 71.3C299.112 71.3 302.099 71.7667 304.665 72.7C307.232 73.5867 309.355 74.7533 311.035 76.2C312.762 77.6 314.045 79.1167 314.885 80.75C315.772 82.3833 316.239 83.9 316.285 85.3C316.332 85.72 316.215 86.07 315.935 86.35C315.655 86.63 315.282 86.77 314.815 86.77H307.605C307.139 86.77 306.789 86.6767 306.555 86.49C306.322 86.3033 306.112 86.0233 305.925 85.65C305.552 84.67 304.969 83.7133 304.175 82.78C303.382 81.8 302.309 80.9833 300.955 80.33C299.602 79.6767 297.852 79.35 295.705 79.35C292.532 79.35 289.989 80.19 288.075 81.87C286.209 83.55 285.205 86.3267 285.065 90.2C284.925 94.26 284.925 98.3667 285.065 102.52C285.205 106.487 286.232 109.333 288.145 111.06C290.105 112.787 292.672 113.65 295.845 113.65C297.945 113.65 299.812 113.277 301.445 112.53C303.125 111.783 304.432 110.617 305.365 109.03C306.345 107.443 306.835 105.413 306.835 102.94V100.77H298.295C297.829 100.77 297.432 100.607 297.105 100.28C296.779 99.9533 296.615 99.5333 296.615 99.02V95.31C296.615 94.7967 296.779 94.3767 297.105 94.05C297.432 93.7233 297.829 93.56 298.295 93.56H315.025C315.539 93.56 315.935 93.7233 316.215 94.05C316.542 94.3767 316.705 94.7967 316.705 95.31V102.66C316.705 106.58 315.842 109.963 314.115 112.81C312.435 115.657 310.009 117.85 306.835 119.39C303.709 120.93 299.999 121.7 295.705 121.7ZM330.509 121.7C328.082 121.7 325.889 121.233 323.929 120.3C321.969 119.32 320.406 118.037 319.239 116.45C318.119 114.817 317.559 112.997 317.559 110.99C317.559 107.723 318.866 105.133 321.479 103.22C324.139 101.26 327.639 99.9533 331.979 99.3L341.569 97.9V96.43C341.569 94.47 341.079 92.9533 340.099 91.88C339.119 90.8067 337.439 90.27 335.059 90.27C333.379 90.27 332.002 90.62 330.929 91.32C329.902 91.9733 329.132 92.86 328.619 93.98C328.246 94.5867 327.709 94.89 327.009 94.89H321.479C320.966 94.89 320.569 94.75 320.289 94.47C320.056 94.19 319.939 93.8167 319.939 93.35C319.986 92.6033 320.289 91.6933 320.849 90.62C321.409 89.5467 322.296 88.52 323.509 87.54C324.722 86.5133 326.286 85.65 328.199 84.95C330.112 84.25 332.422 83.9 335.129 83.9C338.069 83.9 340.542 84.2733 342.549 85.02C344.602 85.72 346.236 86.6767 347.449 87.89C348.662 89.1033 349.549 90.5267 350.109 92.16C350.669 93.7933 350.949 95.52 350.949 97.34V119.32C350.949 119.787 350.786 120.183 350.459 120.51C350.132 120.837 349.736 121 349.269 121H343.599C343.086 121 342.666 120.837 342.339 120.51C342.059 120.183 341.919 119.787 341.919 119.32V116.59C341.312 117.477 340.496 118.317 339.469 119.11C338.442 119.857 337.182 120.487 335.689 121C334.242 121.467 332.516 121.7 330.509 121.7ZM332.889 115.05C334.522 115.05 335.992 114.7 337.299 114C338.652 113.3 339.702 112.227 340.449 110.78C341.242 109.287 341.639 107.42 341.639 105.18V103.71L334.639 104.83C331.886 105.25 329.832 105.927 328.479 106.86C327.126 107.793 326.449 108.937 326.449 110.29C326.449 111.317 326.752 112.203 327.359 112.95C328.012 113.65 328.829 114.187 329.809 114.56C330.789 114.887 331.816 115.05 332.889 115.05ZM356.779 121C356.312 121 355.916 120.837 355.589 120.51C355.262 120.183 355.099 119.787 355.099 119.32V72.98C355.099 72.5133 355.262 72.1167 355.589 71.79C355.916 71.4633 356.312 71.3 356.779 71.3H362.589C363.056 71.3 363.452 71.4633 363.779 71.79C364.106 72.1167 364.269 72.5133 364.269 72.98V119.32C364.269 119.787 364.106 120.183 363.779 120.51C363.452 120.837 363.056 121 362.589 121H356.779ZM370.404 121C369.938 121 369.541 120.837 369.214 120.51C368.888 120.183 368.724 119.787 368.724 119.32V72.98C368.724 72.5133 368.888 72.1167 369.214 71.79C369.541 71.4633 369.938 71.3 370.404 71.3H376.214C376.681 71.3 377.078 71.4633 377.404 71.79C377.731 72.1167 377.894 72.5133 377.894 72.98V119.32C377.894 119.787 377.731 120.183 377.404 120.51C377.078 120.837 376.681 121 376.214 121H370.404ZM397.96 121.7C392.78 121.7 388.673 120.207 385.64 117.22C382.607 114.233 380.973 109.987 380.74 104.48C380.693 104.013 380.67 103.43 380.67 102.73C380.67 101.983 380.693 101.4 380.74 100.98C380.927 97.48 381.72 94.4467 383.12 91.88C384.567 89.3133 386.55 87.3533 389.07 86C391.59 84.6 394.553 83.9 397.96 83.9C401.74 83.9 404.913 84.6933 407.48 86.28C410.047 87.82 411.983 89.99 413.29 92.79C414.597 95.5433 415.25 98.74 415.25 102.38V103.85C415.25 104.317 415.087 104.713 414.76 105.04C414.433 105.367 414.013 105.53 413.5 105.53H390.26C390.26 105.53 390.26 105.6 390.26 105.74C390.26 105.88 390.26 105.997 390.26 106.09C390.307 107.723 390.61 109.24 391.17 110.64C391.777 111.993 392.64 113.09 393.76 113.93C394.927 114.77 396.303 115.19 397.89 115.19C399.197 115.19 400.293 115.003 401.18 114.63C402.067 114.21 402.79 113.743 403.35 113.23C403.91 112.717 404.307 112.297 404.54 111.97C404.96 111.41 405.287 111.083 405.52 110.99C405.8 110.85 406.197 110.78 406.71 110.78H412.73C413.197 110.78 413.57 110.92 413.85 111.2C414.177 111.48 414.317 111.83 414.27 112.25C414.223 112.997 413.827 113.907 413.08 114.98C412.38 116.053 411.353 117.103 410 118.13C408.647 119.157 406.943 120.02 404.89 120.72C402.883 121.373 400.573 121.7 397.96 121.7ZM390.26 99.65H405.73V99.44C405.73 97.62 405.427 96.0333 404.82 94.68C404.213 93.3267 403.327 92.2533 402.16 91.46C400.993 90.6667 399.593 90.27 397.96 90.27C396.327 90.27 394.927 90.6667 393.76 91.46C392.593 92.2533 391.707 93.3267 391.1 94.68C390.54 96.0333 390.26 97.62 390.26 99.44V99.65ZM419.46 121C418.994 121 418.597 120.837 418.27 120.51C417.944 120.183 417.78 119.787 417.78 119.32V86.35C417.78 85.8367 417.944 85.4167 418.27 85.09C418.597 84.7633 418.994 84.6 419.46 84.6H425.13C425.597 84.6 425.994 84.7633 426.32 85.09C426.694 85.4167 426.88 85.8367 426.88 86.35V89.22C427.954 87.7267 429.33 86.5833 431.01 85.79C432.737 84.9967 434.72 84.6 436.96 84.6H439.83C440.344 84.6 440.74 84.7633 441.02 85.09C441.347 85.4167 441.51 85.8133 441.51 86.28V91.32C441.51 91.7867 441.347 92.1833 441.02 92.51C440.74 92.8367 440.344 93 439.83 93H434.37C432.13 93 430.38 93.63 429.12 94.89C427.907 96.15 427.3 97.8767 427.3 100.07V119.32C427.3 119.787 427.137 120.183 426.81 120.51C426.484 120.837 426.064 121 425.55 121H419.46ZM448.65 134.3C448.276 134.3 447.95 134.16 447.67 133.88C447.39 133.6 447.25 133.273 447.25 132.9C447.25 132.713 447.25 132.527 447.25 132.34C447.296 132.2 447.39 132.013 447.53 131.78L452.99 118.83L439.55 87.12C439.363 86.6533 439.27 86.3267 439.27 86.14C439.316 85.72 439.48 85.37 439.76 85.09C440.04 84.7633 440.39 84.6 440.81 84.6H446.48C447.04 84.6 447.46 84.74 447.74 85.02C448.02 85.3 448.23 85.6033 448.37 85.93L457.68 108.82L467.27 85.93C467.41 85.5567 467.62 85.2533 467.9 85.02C468.18 84.74 468.6 84.6 469.16 84.6H474.76C475.133 84.6 475.46 84.74 475.74 85.02C476.066 85.3 476.23 85.6267 476.23 86C476.23 86.28 476.136 86.6533 475.95 87.12L456.14 132.97C455.953 133.343 455.72 133.647 455.44 133.88C455.16 134.16 454.74 134.3 454.18 134.3H448.65Z" fill="black"/>
</svg>
