<svg width="513" height="172" viewBox="0 0 513 172" fill="none" xmlns="http://www.w3.org/2000/svg">
<path d="M102.14 101.253C113.656 94.8161 122.462 89.9121 123.215 89.529C125.624 88.2263 128.108 84.7782 123.215 82.0963C121.634 81.2534 113.129 76.5027 102.14 70.3726L87.0107 85.851L102.14 101.253Z" fill="#FFD400"/>
<path d="M87.0111 85.851L38.6885 135.428C39.8175 135.581 41.0971 135.274 42.6025 134.431C45.7637 132.669 79.3336 113.973 102.14 101.253L87.0111 85.851Z" fill="#FF3333"/>
<path d="M87.0106 85.851L102.14 70.3726C102.14 70.3726 45.9891 39.1861 42.602 37.3471C41.3225 36.5808 39.8924 36.351 38.6128 36.5808L87.0106 85.851Z" fill="#48FF48"/>
<path d="M87.0108 85.851L38.6129 36.5808C36.6559 37.0406 35 38.803 35 42.4044C35 48.1513 35 124.777 35 129.604C35 132.899 36.2796 135.274 38.6882 135.504L87.0108 85.851Z" fill="#3BCCFF"/>
<path d="M152.298 59C152.104 59 151.923 58.9275 151.754 58.7824C151.609 58.6373 151.536 58.4559 151.536 58.2383C151.536 58.1416 151.56 58.0328 151.609 57.9119L160.35 34.517C160.423 34.2751 160.556 34.0696 160.749 33.9003C160.967 33.7069 161.257 33.6102 161.62 33.6102H165.573C165.936 33.6102 166.214 33.7069 166.407 33.9003C166.601 34.0696 166.746 34.2751 166.843 34.517L175.584 57.9119C175.608 58.0328 175.62 58.1416 175.62 58.2383C175.62 58.4559 175.548 58.6373 175.403 58.7824C175.257 58.9275 175.088 59 174.895 59H171.739C171.401 59 171.147 58.9275 170.977 58.7824C170.832 58.6131 170.736 58.4559 170.687 58.3108L168.983 53.8858H158.21L156.505 58.3108C156.457 58.4559 156.348 58.6131 156.179 58.7824C156.034 58.9275 155.792 59 155.453 59H152.298ZM159.48 49.7146H167.713L163.578 38.5068L159.48 49.7146ZM183.97 59C183.583 59 183.293 58.9154 183.099 58.7461C182.93 58.5527 182.785 58.335 182.664 58.0932L175.881 41.2634C175.833 41.1425 175.809 41.0337 175.809 40.937C175.809 40.7193 175.881 40.538 176.027 40.3929C176.196 40.2236 176.389 40.139 176.607 40.139H179.545C179.835 40.139 180.053 40.2236 180.198 40.3929C180.343 40.538 180.44 40.6831 180.488 40.8281L185.312 53.5593L190.136 40.8281C190.184 40.6831 190.281 40.538 190.426 40.3929C190.571 40.2236 190.789 40.139 191.079 40.139H194.053C194.247 40.139 194.416 40.2236 194.561 40.3929C194.73 40.538 194.815 40.7193 194.815 40.937C194.815 41.0337 194.803 41.1425 194.779 41.2634L187.96 58.0932C187.863 58.335 187.718 58.5527 187.524 58.7461C187.331 58.9154 187.041 59 186.654 59H183.97ZM202.857 59.3627C201.599 59.3627 200.463 59.1209 199.447 58.6373C198.432 58.1295 197.622 57.4645 197.017 56.6424C196.437 55.796 196.147 54.853 196.147 53.8132C196.147 52.1206 196.824 50.7785 198.178 49.7871C199.556 48.7715 201.37 48.0945 203.618 47.7559L208.588 47.0305V46.2688C208.588 45.2532 208.334 44.4674 207.826 43.9112C207.318 43.355 206.448 43.077 205.214 43.077C204.344 43.077 203.63 43.2583 203.074 43.621C202.542 43.9596 202.143 44.419 201.877 44.9993C201.684 45.3137 201.406 45.4709 201.043 45.4709H198.178C197.912 45.4709 197.706 45.3983 197.561 45.2532C197.44 45.1081 197.38 44.9147 197.38 44.6729C197.404 44.286 197.561 43.8145 197.851 43.2583C198.141 42.7022 198.601 42.1702 199.23 41.6624C199.858 41.1304 200.668 40.6831 201.66 40.3203C202.651 39.9576 203.848 39.7763 205.251 39.7763C206.774 39.7763 208.056 39.9697 209.095 40.3566C210.159 40.7193 211.006 41.215 211.634 41.8437C212.263 42.4724 212.722 43.2099 213.013 44.0563C213.303 44.9026 213.448 45.7973 213.448 46.7403V58.1295C213.448 58.3713 213.363 58.5768 213.194 58.7461C213.025 58.9154 212.819 59 212.577 59H209.639C209.373 59 209.156 58.9154 208.987 58.7461C208.841 58.5768 208.769 58.3713 208.769 58.1295V56.7149C208.455 57.1744 208.031 57.6096 207.499 58.0207C206.967 58.4076 206.315 58.734 205.541 59C204.791 59.2418 203.896 59.3627 202.857 59.3627ZM204.09 55.917C204.936 55.917 205.698 55.7356 206.375 55.3729C207.076 55.0102 207.62 54.454 208.007 53.7044C208.418 52.9306 208.624 51.9634 208.624 50.8027V50.041L204.997 50.6214C203.57 50.839 202.506 51.1896 201.805 51.6732C201.104 52.1568 200.753 52.7493 200.753 53.4505C200.753 53.9825 200.91 54.4419 201.225 54.8288C201.563 55.1915 201.986 55.4696 202.494 55.6631C203.002 55.8323 203.534 55.917 204.09 55.917ZM218.972 59C218.73 59 218.524 58.9154 218.355 58.7461C218.186 58.5768 218.101 58.3713 218.101 58.1295V41.0095C218.101 40.7677 218.186 40.5622 218.355 40.3929C218.524 40.2236 218.73 40.139 218.972 40.139H221.982C222.248 40.139 222.454 40.2236 222.599 40.3929C222.768 40.5622 222.853 40.7677 222.853 41.0095V58.1295C222.853 58.3713 222.768 58.5768 222.599 58.7461C222.454 58.9154 222.248 59 221.982 59H218.972ZM218.827 37.0197C218.561 37.0197 218.343 36.9471 218.174 36.802C218.029 36.6328 217.956 36.4151 217.956 36.1492V33.5376C217.956 33.2958 218.029 33.0903 218.174 32.921C218.343 32.7518 218.561 32.6671 218.827 32.6671H222.127C222.393 32.6671 222.611 32.7518 222.78 32.921C222.949 33.0903 223.034 33.2958 223.034 33.5376V36.1492C223.034 36.4151 222.949 36.6328 222.78 36.802C222.611 36.9471 222.393 37.0197 222.127 37.0197H218.827ZM228.572 59C228.33 59 228.124 58.9154 227.955 58.7461C227.786 58.5768 227.701 58.3713 227.701 58.1295V34.118C227.701 33.8762 227.786 33.6706 227.955 33.5014C228.124 33.3321 228.33 33.2475 228.572 33.2475H231.582C231.824 33.2475 232.029 33.3321 232.199 33.5014C232.368 33.6706 232.453 33.8762 232.453 34.118V58.1295C232.453 58.3713 232.368 58.5768 232.199 58.7461C232.029 58.9154 231.824 59 231.582 59H228.572ZM242.741 59.3627C241.483 59.3627 240.347 59.1209 239.331 58.6373C238.316 58.1295 237.506 57.4645 236.901 56.6424C236.321 55.796 236.031 54.853 236.031 53.8132C236.031 52.1206 236.708 50.7785 238.062 49.7871C239.44 48.7715 241.254 48.0945 243.503 47.7559L248.472 47.0305V46.2688C248.472 45.2532 248.218 44.4674 247.71 43.9112C247.202 43.355 246.332 43.077 245.098 43.077C244.228 43.077 243.515 43.2583 242.958 43.621C242.426 43.9596 242.027 44.419 241.762 44.9993C241.568 45.3137 241.29 45.4709 240.927 45.4709H238.062C237.796 45.4709 237.59 45.3983 237.445 45.2532C237.324 45.1081 237.264 44.9147 237.264 44.6729C237.288 44.286 237.445 43.8145 237.735 43.2583C238.026 42.7022 238.485 42.1702 239.114 41.6624C239.742 41.1304 240.552 40.6831 241.544 40.3203C242.535 39.9576 243.732 39.7763 245.135 39.7763C246.658 39.7763 247.94 39.9697 248.979 40.3566C250.043 40.7193 250.89 41.215 251.518 41.8437C252.147 42.4724 252.607 43.2099 252.897 44.0563C253.187 44.9026 253.332 45.7973 253.332 46.7403V58.1295C253.332 58.3713 253.247 58.5768 253.078 58.7461C252.909 58.9154 252.703 59 252.461 59H249.524C249.258 59 249.04 58.9154 248.871 58.7461C248.726 58.5768 248.653 58.3713 248.653 58.1295V56.7149C248.339 57.1744 247.916 57.6096 247.384 58.0207C246.852 58.4076 246.199 58.734 245.425 59C244.675 59.2418 243.781 59.3627 242.741 59.3627ZM243.974 55.917C244.82 55.917 245.582 55.7356 246.259 55.3729C246.96 55.0102 247.504 54.454 247.891 53.7044C248.302 52.9306 248.508 51.9634 248.508 50.8027V50.041L244.881 50.6214C243.454 50.839 242.39 51.1896 241.689 51.6732C240.988 52.1568 240.637 52.7493 240.637 53.4505C240.637 53.9825 240.794 54.4419 241.109 54.8288C241.447 55.1915 241.87 55.4696 242.378 55.6631C242.886 55.8323 243.418 55.917 243.974 55.917ZM268.431 59.3627C267.029 59.3627 265.856 59.1209 264.913 58.6373C263.994 58.1537 263.232 57.5371 262.628 56.7875V58.1295C262.628 58.3713 262.543 58.5768 262.374 58.7461C262.229 58.9154 262.023 59 261.757 59H258.892C258.65 59 258.445 58.9154 258.275 58.7461C258.106 58.5768 258.021 58.3713 258.021 58.1295V34.118C258.021 33.8762 258.106 33.6706 258.275 33.5014C258.445 33.3321 258.65 33.2475 258.892 33.2475H261.975C262.241 33.2475 262.447 33.3321 262.592 33.5014C262.761 33.6706 262.846 33.8762 262.846 34.118V42.1702C263.45 41.4689 264.2 40.9007 265.094 40.4654C266.013 40.006 267.126 39.7763 268.431 39.7763C269.713 39.7763 270.825 39.9939 271.768 40.4292C272.711 40.8644 273.497 41.481 274.126 42.279C274.779 43.0528 275.274 43.9596 275.613 44.9993C275.952 46.0391 276.133 47.1635 276.157 48.3725C276.181 48.8078 276.193 49.2068 276.193 49.5695C276.193 49.908 276.181 50.2949 276.157 50.7302C276.109 51.9876 275.915 53.1483 275.577 54.2122C275.238 55.252 274.755 56.1588 274.126 56.9325C273.497 57.7063 272.711 58.3108 271.768 58.7461C270.825 59.1572 269.713 59.3627 268.431 59.3627ZM267.089 55.4817C268.129 55.4817 268.939 55.2641 269.519 54.8288C270.1 54.3694 270.511 53.777 270.753 53.0515C271.019 52.3261 271.176 51.5281 271.224 50.6576C271.273 49.9322 271.273 49.2068 271.224 48.4814C271.176 47.6109 271.019 46.8129 270.753 46.0875C270.511 45.362 270.1 44.7817 269.519 44.3464C268.939 43.887 268.129 43.6573 267.089 43.6573C266.122 43.6573 265.336 43.8749 264.732 44.3102C264.127 44.7454 263.668 45.3016 263.353 45.9786C263.039 46.6315 262.87 47.3207 262.846 48.0461C262.821 48.4814 262.809 48.9529 262.809 49.4607C262.809 49.9443 262.821 50.4037 262.846 50.839C262.894 51.5886 263.051 52.3261 263.317 53.0515C263.607 53.7528 264.055 54.3331 264.659 54.7925C265.288 55.252 266.098 55.4817 267.089 55.4817ZM281.136 59C280.895 59 280.689 58.9154 280.52 58.7461C280.351 58.5768 280.266 58.3713 280.266 58.1295V34.118C280.266 33.8762 280.351 33.6706 280.52 33.5014C280.689 33.3321 280.895 33.2475 281.136 33.2475H284.147C284.389 33.2475 284.594 33.3321 284.764 33.5014C284.933 33.6706 285.017 33.8762 285.017 34.118V58.1295C285.017 58.3713 284.933 58.5768 284.764 58.7461C284.594 58.9154 284.389 59 284.147 59H281.136ZM297.953 59.3627C295.269 59.3627 293.142 58.5889 291.57 57.0414C289.998 55.4938 289.152 53.2933 289.031 50.44C289.007 50.1982 288.995 49.8959 288.995 49.5332C288.995 49.1463 289.007 48.8441 289.031 48.6264C289.127 46.8129 289.539 45.2411 290.264 43.9112C291.014 42.5812 292.041 41.5657 293.347 40.8644C294.653 40.139 296.188 39.7763 297.953 39.7763C299.912 39.7763 301.556 40.1874 302.886 41.0095C304.216 41.8075 305.22 42.9319 305.897 44.3827C306.574 45.8094 306.912 47.4658 306.912 49.3519V50.1136C306.912 50.3554 306.828 50.5609 306.659 50.7302C306.489 50.8994 306.272 50.9841 306.006 50.9841H293.964C293.964 50.9841 293.964 51.0203 293.964 51.0929C293.964 51.1654 293.964 51.2259 293.964 51.2742C293.988 52.1206 294.145 52.9064 294.435 53.6319C294.75 54.3331 295.197 54.9014 295.777 55.3366C296.382 55.7719 297.095 55.9895 297.917 55.9895C298.594 55.9895 299.163 55.8928 299.622 55.6993C300.081 55.4817 300.456 55.2399 300.746 54.9739C301.037 54.7079 301.242 54.4903 301.363 54.321C301.581 54.0308 301.75 53.8616 301.871 53.8132C302.016 53.7407 302.221 53.7044 302.487 53.7044H305.607C305.849 53.7044 306.042 53.777 306.187 53.922C306.356 54.0671 306.429 54.2485 306.405 54.4661C306.38 54.853 306.175 55.3245 305.788 55.8807C305.425 56.4368 304.893 56.9809 304.192 57.5129C303.491 58.0449 302.608 58.4922 301.544 58.8549C300.505 59.1934 299.308 59.3627 297.953 59.3627ZM293.964 47.9373H301.98V47.8285C301.98 46.8854 301.822 46.0633 301.508 45.362C301.194 44.6608 300.734 44.1046 300.13 43.6936C299.525 43.2825 298.8 43.077 297.953 43.077C297.107 43.077 296.382 43.2825 295.777 43.6936C295.173 44.1046 294.713 44.6608 294.399 45.362C294.109 46.0633 293.964 46.8854 293.964 47.8285V47.9373ZM327.393 59.3627C325.459 59.3627 323.827 59.0242 322.497 58.3471C321.191 57.6701 320.188 56.7149 319.486 55.4817C318.809 54.2485 318.422 52.8097 318.326 51.1654C318.302 50.7302 318.289 50.1982 318.289 49.5695C318.289 48.9408 318.302 48.4088 318.326 47.9736C318.422 46.3051 318.821 44.8663 319.523 43.6573C320.248 42.4241 321.264 41.4689 322.569 40.7919C323.899 40.1148 325.507 39.7763 327.393 39.7763C329.28 39.7763 330.876 40.1148 332.181 40.7919C333.511 41.4689 334.527 42.4241 335.228 43.6573C335.953 44.8663 336.365 46.3051 336.461 47.9736C336.485 48.4088 336.498 48.9408 336.498 49.5695C336.498 50.1982 336.485 50.7302 336.461 51.1654C336.365 52.8097 335.966 54.2485 335.264 55.4817C334.587 56.7149 333.584 57.6701 332.254 58.3471C330.948 59.0242 329.328 59.3627 327.393 59.3627ZM327.393 55.7719C328.675 55.7719 329.666 55.3729 330.368 54.5749C331.069 53.7528 331.456 52.5558 331.528 50.9841C331.553 50.6214 331.565 50.1498 331.565 49.5695C331.565 48.9892 331.553 48.5176 331.528 48.1549C331.456 46.6073 331.069 45.4225 330.368 44.6003C329.666 43.7782 328.675 43.3671 327.393 43.3671C326.112 43.3671 325.121 43.7782 324.419 44.6003C323.718 45.4225 323.331 46.6073 323.259 48.1549C323.234 48.5176 323.222 48.9892 323.222 49.5695C323.222 50.1498 323.234 50.6214 323.259 50.9841C323.331 52.5558 323.718 53.7528 324.419 54.5749C325.121 55.3729 326.112 55.7719 327.393 55.7719ZM341.387 59C341.145 59 340.939 58.9154 340.77 58.7461C340.601 58.5768 340.516 58.3713 340.516 58.1295V41.0095C340.516 40.7677 340.601 40.5622 340.77 40.3929C340.939 40.2236 341.145 40.139 341.387 40.139H344.361C344.603 40.139 344.808 40.2236 344.978 40.3929C345.147 40.5622 345.232 40.7677 345.232 41.0095V42.4966C345.86 41.7228 346.658 41.082 347.625 40.5742C348.617 40.0423 349.838 39.7763 351.289 39.7763C352.764 39.7763 354.045 40.1148 355.134 40.7919C356.222 41.4448 357.056 42.3757 357.636 43.5848C358.241 44.7938 358.543 46.2446 358.543 47.9373V58.1295C358.543 58.3713 358.458 58.5768 358.289 58.7461C358.12 58.9154 357.914 59 357.673 59H354.481C354.239 59 354.033 58.9154 353.864 58.7461C353.695 58.5768 353.61 58.3713 353.61 58.1295V48.1549C353.61 46.7524 353.26 45.6522 352.558 44.8542C351.881 44.0563 350.89 43.6573 349.584 43.6573C348.327 43.6573 347.323 44.0563 346.574 44.8542C345.824 45.6522 345.449 46.7524 345.449 48.1549V58.1295C345.449 58.3713 345.365 58.5768 345.195 58.7461C345.026 58.9154 344.82 59 344.579 59H341.387Z" fill="black"/>
<path d="M158.869 128C158.357 128 157.921 127.821 157.563 127.462C157.204 127.103 157.025 126.668 157.025 126.155V76.1099C157.025 75.5462 157.204 75.0849 157.563 74.7262C157.921 74.3674 158.357 74.1881 158.869 74.1881H179.472C183.469 74.1881 186.954 74.8287 189.927 76.1099C192.899 77.3399 195.205 79.2361 196.845 81.7986C198.485 84.3098 199.305 87.4617 199.305 91.2541C199.305 95.0978 198.485 98.2753 196.845 100.787C195.205 103.247 192.899 105.091 189.927 106.321C186.954 107.551 183.469 108.166 179.472 108.166H168.018V126.155C168.018 126.668 167.838 127.103 167.479 127.462C167.172 127.821 166.736 128 166.173 128H158.869ZM167.864 99.6334H179.087C182.06 99.6334 184.34 98.9416 185.929 97.5578C187.518 96.1228 188.312 94.0216 188.312 91.2541C188.312 88.6917 187.569 86.6417 186.083 85.1042C184.597 83.5155 182.265 82.7211 179.087 82.7211H167.864V99.6334ZM203.317 128C202.804 128 202.368 127.821 202.01 127.462C201.651 127.103 201.472 126.668 201.472 126.155V75.2643C201.472 74.7518 201.651 74.3162 202.01 73.9574C202.368 73.5987 202.804 73.4193 203.317 73.4193H209.697C210.21 73.4193 210.645 73.5987 211.004 73.9574C211.363 74.3162 211.542 74.7518 211.542 75.2643V126.155C211.542 126.668 211.363 127.103 211.004 127.462C210.645 127.821 210.21 128 209.697 128H203.317ZM227.966 128.769C225.301 128.769 222.892 128.256 220.74 127.231C218.588 126.155 216.871 124.746 215.589 123.003C214.359 121.209 213.744 119.211 213.744 117.007C213.744 113.42 215.179 110.575 218.049 108.474C220.971 106.321 224.814 104.886 229.581 104.169L240.112 102.632V101.017C240.112 98.8647 239.574 97.1991 238.498 96.0203C237.422 94.8416 235.577 94.2522 232.963 94.2522C231.118 94.2522 229.606 94.6366 228.427 95.4053C227.3 96.1228 226.454 97.0966 225.891 98.3266C225.481 98.9928 224.891 99.3259 224.122 99.3259H218.049C217.486 99.3259 217.05 99.1722 216.743 98.8647C216.486 98.5572 216.358 98.1472 216.358 97.6347C216.409 96.8147 216.743 95.8153 217.358 94.6366C217.973 93.4579 218.946 92.3304 220.279 91.2541C221.611 90.1267 223.328 89.1785 225.429 88.4098C227.531 87.6411 230.067 87.2567 233.04 87.2567C236.269 87.2567 238.985 87.6667 241.189 88.4867C243.444 89.2554 245.237 90.306 246.57 91.6385C247.902 92.971 248.876 94.5341 249.491 96.3278C250.106 98.1216 250.413 100.018 250.413 102.017V126.155C250.413 126.668 250.234 127.103 249.875 127.462C249.517 127.821 249.081 128 248.568 128H242.342C241.778 128 241.317 127.821 240.958 127.462C240.65 127.103 240.497 126.668 240.497 126.155V123.157C239.83 124.131 238.934 125.053 237.806 125.924C236.679 126.744 235.295 127.436 233.655 128C232.066 128.512 230.17 128.769 227.966 128.769ZM230.58 121.466C232.374 121.466 233.988 121.081 235.423 120.313C236.909 119.544 238.062 118.365 238.882 116.776C239.754 115.136 240.189 113.086 240.189 110.626V109.012L232.502 110.242C229.478 110.703 227.223 111.446 225.737 112.471C224.251 113.496 223.507 114.752 223.507 116.238C223.507 117.366 223.841 118.339 224.507 119.159C225.224 119.928 226.121 120.518 227.197 120.928C228.274 121.286 229.401 121.466 230.58 121.466ZM261.07 142.606C260.66 142.606 260.301 142.452 259.993 142.145C259.686 141.837 259.532 141.479 259.532 141.069C259.532 140.864 259.532 140.659 259.532 140.454C259.583 140.3 259.686 140.095 259.84 139.839L265.836 125.617L251.076 90.7929C250.871 90.2804 250.768 89.9217 250.768 89.7167C250.82 89.2554 250.999 88.871 251.306 88.5635C251.614 88.2048 251.998 88.0254 252.46 88.0254H258.686C259.301 88.0254 259.763 88.1792 260.07 88.4867C260.378 88.7942 260.608 89.1273 260.762 89.486L270.986 114.624L281.518 89.486C281.672 89.076 281.902 88.7429 282.21 88.4867C282.517 88.1792 282.979 88.0254 283.594 88.0254H289.744C290.154 88.0254 290.512 88.1792 290.82 88.4867C291.179 88.7942 291.358 89.1529 291.358 89.5629C291.358 89.8704 291.255 90.2804 291.05 90.7929L269.295 141.145C269.09 141.555 268.834 141.889 268.526 142.145C268.219 142.452 267.758 142.606 267.143 142.606H261.07ZM322.366 128.769C317.6 128.769 313.603 128.077 310.374 126.693C307.197 125.258 304.762 123.413 303.071 121.158C301.431 118.852 300.56 116.443 300.457 113.932C300.457 113.471 300.611 113.086 300.919 112.779C301.226 112.471 301.61 112.318 302.072 112.318H308.913C309.58 112.318 310.067 112.471 310.374 112.779C310.733 113.035 311.04 113.368 311.297 113.778C311.604 114.752 312.193 115.726 313.065 116.699C313.936 117.622 315.115 118.391 316.601 119.006C318.138 119.621 320.06 119.928 322.366 119.928C326.056 119.928 328.798 119.313 330.592 118.083C332.437 116.853 333.359 115.188 333.359 113.086C333.359 111.6 332.873 110.421 331.899 109.55C330.925 108.628 329.413 107.808 327.363 107.09C325.365 106.321 322.7 105.527 319.368 104.707C315.525 103.785 312.296 102.683 309.682 101.402C307.12 100.069 305.172 98.4034 303.84 96.4047C302.559 94.406 301.918 91.8691 301.918 88.7942C301.918 85.8217 302.712 83.1823 304.301 80.8761C305.941 78.5699 308.247 76.7505 311.22 75.4181C314.243 74.0856 317.831 73.4193 321.982 73.4193C325.313 73.4193 328.26 73.8806 330.823 74.8031C333.385 75.6743 335.512 76.853 337.203 78.3393C338.894 79.7743 340.176 81.3374 341.047 83.0286C341.969 84.6686 342.456 86.2829 342.507 87.8717C342.507 88.2817 342.354 88.666 342.046 89.0248C341.79 89.3323 341.406 89.486 340.893 89.486H333.744C333.334 89.486 332.924 89.3835 332.514 89.1785C332.104 88.9735 331.771 88.5892 331.514 88.0254C331.207 86.4367 330.208 85.0786 328.516 83.9511C326.825 82.8236 324.647 82.2599 321.982 82.2599C319.215 82.2599 316.985 82.7724 315.294 83.7973C313.603 84.8223 312.757 86.4111 312.757 88.5635C312.757 89.9985 313.167 91.2029 313.987 92.1766C314.858 93.0991 316.217 93.9191 318.062 94.6366C319.958 95.3541 322.443 96.1228 325.518 96.9428C329.875 97.9166 333.436 99.0441 336.204 100.325C338.971 101.607 340.996 103.247 342.277 105.245C343.558 107.193 344.199 109.678 344.199 112.702C344.199 116.085 343.276 118.98 341.431 121.389C339.638 123.746 337.101 125.566 333.821 126.847C330.541 128.128 326.723 128.769 322.366 128.769ZM364.77 128C361.695 128 359.107 127.462 357.006 126.386C354.905 125.309 353.342 123.721 352.317 121.619C351.292 119.467 350.779 116.802 350.779 113.625V96.1741H344.706C344.194 96.1741 343.758 95.9947 343.399 95.636C343.041 95.2772 342.861 94.8416 342.861 94.3291V89.8704C342.861 89.3579 343.041 88.9223 343.399 88.5635C343.758 88.2048 344.194 88.0254 344.706 88.0254H350.779V75.2643C350.779 74.7518 350.933 74.3162 351.241 73.9574C351.599 73.5987 352.061 73.4193 352.624 73.4193H358.851C359.364 73.4193 359.799 73.5987 360.158 73.9574C360.517 74.3162 360.696 74.7518 360.696 75.2643V88.0254H370.305C370.818 88.0254 371.253 88.2048 371.612 88.5635C371.971 88.9223 372.15 89.3579 372.15 89.8704V94.3291C372.15 94.8416 371.971 95.2772 371.612 95.636C371.253 95.9947 370.818 96.1741 370.305 96.1741H360.696V112.856C360.696 114.957 361.055 116.597 361.772 117.776C362.541 118.954 363.848 119.544 365.693 119.544H370.997C371.51 119.544 371.945 119.723 372.304 120.082C372.663 120.441 372.842 120.876 372.842 121.389V126.155C372.842 126.668 372.663 127.103 372.304 127.462C371.945 127.821 371.51 128 370.997 128H364.77ZM391.962 128.769C387.862 128.769 384.402 128.051 381.584 126.616C378.816 125.181 376.689 123.157 375.203 120.543C373.768 117.929 372.948 114.88 372.743 111.395C372.692 110.473 372.666 109.345 372.666 108.013C372.666 106.68 372.692 105.553 372.743 104.63C372.948 101.094 373.794 98.0447 375.28 95.4822C376.817 92.8685 378.97 90.8441 381.737 89.4092C384.556 87.9742 387.964 87.2567 391.962 87.2567C395.959 87.2567 399.342 87.9742 402.109 89.4092C404.928 90.8441 407.08 92.8685 408.566 95.4822C410.104 98.0447 410.975 101.094 411.18 104.63C411.231 105.553 411.257 106.68 411.257 108.013C411.257 109.345 411.231 110.473 411.18 111.395C410.975 114.88 410.13 117.929 408.643 120.543C407.208 123.157 405.081 125.181 402.263 126.616C399.495 128.051 396.062 128.769 391.962 128.769ZM391.962 121.158C394.678 121.158 396.779 120.313 398.265 118.621C399.752 116.879 400.572 114.342 400.725 111.011C400.777 110.242 400.802 109.243 400.802 108.013C400.802 106.783 400.777 105.783 400.725 105.015C400.572 101.735 399.752 99.2234 398.265 97.4809C396.779 95.7385 394.678 94.8672 391.962 94.8672C389.245 94.8672 387.144 95.7385 385.658 97.4809C384.172 99.2234 383.352 101.735 383.198 105.015C383.147 105.783 383.121 106.783 383.121 108.013C383.121 109.243 383.147 110.242 383.198 111.011C383.352 114.342 384.172 116.879 385.658 118.621C387.144 120.313 389.245 121.158 391.962 121.158ZM416.238 128C415.726 128 415.29 127.821 414.931 127.462C414.573 127.103 414.393 126.668 414.393 126.155V89.9473C414.393 89.3835 414.573 88.9223 414.931 88.5635C415.29 88.2048 415.726 88.0254 416.238 88.0254H422.465C422.978 88.0254 423.413 88.2048 423.772 88.5635C424.182 88.9223 424.387 89.3835 424.387 89.9473V93.0991C425.566 91.4591 427.078 90.2035 428.922 89.3323C430.819 88.461 432.997 88.0254 435.457 88.0254H438.609C439.172 88.0254 439.608 88.2048 439.916 88.5635C440.274 88.9223 440.454 89.3579 440.454 89.8704V95.4053C440.454 95.9178 440.274 96.3535 439.916 96.7122C439.608 97.071 439.172 97.2503 438.609 97.2503H432.612C430.152 97.2503 428.231 97.9422 426.847 99.3259C425.514 100.71 424.848 102.606 424.848 105.015V126.155C424.848 126.668 424.669 127.103 424.31 127.462C423.951 127.821 423.49 128 422.926 128H416.238ZM457.762 128.769C452.074 128.769 447.564 127.129 444.232 123.849C440.901 120.569 439.108 115.905 438.851 109.858C438.8 109.345 438.774 108.705 438.774 107.936C438.774 107.116 438.8 106.475 438.851 106.014C439.056 102.17 439.928 98.8391 441.465 96.0203C443.054 93.2016 445.232 91.0491 447.999 89.5629C450.767 88.0254 454.021 87.2567 457.762 87.2567C461.914 87.2567 465.398 88.1279 468.217 89.8704C471.036 91.5616 473.163 93.9447 474.598 97.0197C476.033 100.043 476.75 103.554 476.75 107.551V109.166C476.75 109.678 476.571 110.114 476.212 110.473C475.853 110.831 475.392 111.011 474.828 111.011H449.306C449.306 111.011 449.306 111.088 449.306 111.241C449.306 111.395 449.306 111.523 449.306 111.626C449.357 113.42 449.691 115.085 450.306 116.623C450.972 118.109 451.92 119.313 453.15 120.236C454.431 121.158 455.943 121.619 457.685 121.619C459.12 121.619 460.325 121.414 461.299 121.004C462.272 120.543 463.067 120.031 463.682 119.467C464.297 118.903 464.732 118.442 464.988 118.083C465.45 117.468 465.808 117.109 466.065 117.007C466.372 116.853 466.808 116.776 467.372 116.776H473.983C474.495 116.776 474.905 116.93 475.213 117.238C475.572 117.545 475.725 117.929 475.674 118.391C475.623 119.211 475.187 120.21 474.367 121.389C473.598 122.568 472.471 123.721 470.985 124.848C469.498 125.976 467.628 126.924 465.373 127.693C463.169 128.41 460.632 128.769 457.762 128.769ZM449.306 104.553H466.295V104.323C466.295 102.324 465.962 100.582 465.296 99.0953C464.63 97.6091 463.656 96.4303 462.375 95.5591C461.094 94.6879 459.556 94.2522 457.762 94.2522C455.969 94.2522 454.431 94.6879 453.15 95.5591C451.869 96.4303 450.895 97.6091 450.229 99.0953C449.614 100.582 449.306 102.324 449.306 104.323V104.553Z" fill="black"/>
</svg>
